<svg width="42" height="45" viewBox="0 0 37 45" fill="none" xmlns="http://www.w3.org/2000/svg">
<path d="M34.3778 6.10779C33.731 6.10849 33.1109 6.36364 32.6535 6.81728C32.196 7.27092 31.9385 7.88603 31.9374 8.52775V20.1036C31.9374 20.2458 31.8805 20.3821 31.7792 20.4826C31.6779 20.5831 31.5405 20.6396 31.3972 20.6396C31.254 20.6396 31.1166 20.5831 31.0153 20.4826C30.9139 20.3821 30.857 20.2458 30.857 20.1036V2.83829C30.8563 2.08582 30.5547 1.36437 30.0185 0.832291C29.4822 0.300212 28.7551 0.000979438 27.9967 0.000269892C27.6131 -0.00500072 27.2325 0.0669739 26.8778 0.211842C26.5231 0.35671 26.2017 0.571458 25.9331 0.843099C25.4141 1.38474 25.1283 2.10573 25.1363 2.85303V20.1036C25.1363 20.2458 25.0794 20.3821 24.9781 20.4826C24.8768 20.5831 24.7394 20.6396 24.5961 20.6396C24.4528 20.6396 24.3154 20.5831 24.2141 20.4826C24.1128 20.3821 24.0559 20.2458 24.0559 20.1036V3.06341C24.0548 2.25134 23.7292 1.47283 23.1505 0.898614C22.5717 0.324395 21.7871 0.00133351 20.9687 0.000269892C19.0361 0.000269892 17.8814 1.65645 17.8814 3.25636V20.1036C17.8814 20.2458 17.8245 20.3821 17.7232 20.4826C17.6219 20.5831 17.4845 20.6396 17.3412 20.6396C17.1979 20.6396 17.0605 20.5831 16.9592 20.4826C16.8579 20.3821 16.801 20.2458 16.801 20.1036V6.30208C16.8003 5.54961 16.4987 4.82816 15.9624 4.29608C15.4262 3.764 14.699 3.46477 13.9406 3.46406C12.1499 3.46406 11.0803 4.99831 11.0803 6.48298V27.4251H17.4276C18.6798 27.4249 19.9174 27.6925 21.0558 28.2098C22.1943 28.727 23.207 29.4818 24.0248 30.4226C24.1185 30.5301 24.1652 30.6701 24.1548 30.8119C24.1444 30.9536 24.0778 31.0854 23.9695 31.1784C23.8611 31.2712 23.72 31.3176 23.5772 31.3073C23.4343 31.297 23.3015 31.2309 23.2078 31.1234C22.4912 30.2992 21.6039 29.6379 20.6065 29.1847C19.609 28.7314 18.5247 28.4969 17.4276 28.4971H10.5401C10.5161 28.4963 10.4922 28.494 10.4685 28.4904H10.4402C10.3959 28.481 10.3528 28.4666 10.3119 28.4475L10.2835 28.4328C10.248 28.4133 10.2146 28.3904 10.1836 28.3644L10.1701 28.3537L7.492 25.8574C6.52934 24.9527 5.2487 24.4566 3.92285 24.4749C2.597 24.4931 1.33074 25.0243 0.393766 25.9552C0.148993 26.1949 0.00788285 26.5198 0.000320361 26.8609C-0.00724213 27.2021 0.119339 27.5328 0.353253 27.7829L10.4969 38.7022C14.5659 43.1777 18.7012 45 24.7703 45C31.4134 45 36.8182 39.5826 36.8182 32.9216V8.647C36.8236 7.41558 35.9633 6.10779 34.3778 6.10779Z" fill="#000"/>
</svg>
