<svg width="42" height="45" viewBox="0 0 42 45" fill="none" xmlns="http://www.w3.org/2000/svg">
<path fill-rule="evenodd" clip-rule="evenodd" d="M9.47369 13.22V3.8565C9.47369 2.83369 9.0994 1.85277 8.43315 1.12954C7.7669 0.406308 6.86328 0 5.92106 0C4.97884 0 4.07522 0.406308 3.40897 1.12954C2.74272 1.85277 2.36843 2.83369 2.36843 3.8565V15.3947C3.97047 13.9862 5.96992 13.2184 8.03153 13.22H9.47369ZM31.9737 14.2105V4.72382C31.9737 3.47099 31.4746 2.26946 30.5863 1.38358C29.698 0.497691 28.4931 0 27.2368 0C25.9806 0 24.7757 0.497691 23.8874 1.38358C22.9991 2.26946 22.5 3.47099 22.5 4.72382V13.9494H30.8549C31.243 13.9501 31.6257 14.0394 31.9737 14.2105ZM34.291 22.8764C35.1565 23.3747 36.1384 23.6376 37.1382 23.6386C37.9564 23.6384 38.7649 23.4625 39.5086 23.1227C40.2523 22.783 40.9136 22.2875 41.4474 21.67V27.4526C41.44 32.1045 39.5808 36.5638 36.2774 39.853C32.9739 43.1422 28.4956 44.9931 23.8241 45H21.2915C10.125 45 0.944044 36.3954 0.0731544 25.4944C0.0278681 24.9342 0 24.3705 0 23.7981C0 23.5605 0.0121912 23.3246 0.0313507 23.0887V23.009C0.0522521 22.7818 0.0836039 22.5545 0.123665 22.3308L0.13934 22.2441C0.181143 22.0221 0.231655 21.8018 0.292618 21.5832C0.295106 21.5733 0.298705 21.5634 0.302304 21.5535C0.308783 21.5357 0.315262 21.5178 0.315262 21.5C0.377966 21.2832 0.447635 21.0681 0.526015 20.8582C0.531241 20.8444 0.536903 20.8309 0.542565 20.8175C0.548225 20.804 0.553885 20.7906 0.55911 20.7767C0.639231 20.5686 0.726321 20.3639 0.823861 20.1627L0.865664 20.0777C0.947646 19.9161 1.03426 19.7622 1.1255 19.6L1.14261 19.5696L1.14265 19.5695C1.17225 19.5175 1.20184 19.4655 1.23318 19.4152C1.32898 19.2591 1.43174 19.1082 1.53799 18.959C1.55955 18.9313 1.58112 18.9017 1.60316 18.8715C1.62385 18.8431 1.64495 18.8141 1.66688 18.7856C1.77313 18.6416 1.88809 18.5029 2.00479 18.3658C2.79612 17.4349 3.78165 16.6868 4.89282 16.1737C6.00399 15.6606 7.21409 15.3948 8.43892 15.3947H30.3435C30.6336 15.3947 30.9119 15.5095 31.117 15.7138C31.3221 15.918 31.4374 16.1951 31.4374 16.484V17.5992C31.4351 19.5106 30.6714 21.343 29.314 22.6944C27.9566 24.0458 26.1162 24.8057 24.1968 24.8076H13.3298C13.1451 24.8076 12.9678 24.8807 12.8372 25.0108C12.7065 25.1409 12.6331 25.3174 12.6331 25.5014C12.6331 25.6854 12.7065 25.8618 12.8372 25.9919C12.9678 26.122 13.1451 26.1951 13.3298 26.1951H13.4535C15.6067 26.1979 17.671 27.0509 19.1935 28.567C20.7161 30.0832 21.5726 32.1387 21.5754 34.2829V36.8845C21.5754 37.0685 21.6488 37.245 21.7795 37.3751C21.9101 37.5052 22.0873 37.5783 22.2721 37.5783C22.4569 37.5783 22.6341 37.5052 22.7648 37.3751C22.8954 37.245 22.9688 37.0685 22.9688 36.8845V34.2829C22.9681 32.6583 22.548 31.0612 21.7488 29.6449C20.9497 28.2287 19.7984 27.0407 18.4054 26.1951H24.1951C25.9185 26.1931 27.602 25.6784 29.0295 24.717C30.4571 23.7555 31.5637 22.3913 32.2072 20.7993C32.7068 21.6616 33.4254 22.378 34.291 22.8764ZM21.3158 4.87197C21.3158 3.57985 20.8167 2.34064 19.9284 1.42697C19.0401 0.513299 17.8352 0 16.5789 0C15.3227 0 14.1178 0.513299 13.2295 1.42697C12.3412 2.34064 11.8421 3.57985 11.8421 4.87197V14.2105H21.3158V4.87197ZM34.3725 8.2961C35.1494 7.53484 36.2029 7.10657 37.3018 7.10527C38.4009 7.10657 39.4545 7.53479 40.2317 8.296C41.0088 9.05721 41.446 10.0893 41.4474 11.1658V17.3369C41.4256 18.3995 40.9793 19.4113 40.2044 20.1552C39.4295 20.8991 38.3877 21.3158 37.3026 21.3158C36.2176 21.3158 35.1758 20.8991 34.4009 20.1552C33.626 19.4113 33.1797 18.3995 33.1579 17.3369V11.1658C33.1588 10.0894 33.5956 9.05735 34.3725 8.2961Z" fill="#D5D922"/>
</svg>
