<svg width="42" height="45" viewBox="0 0 28 45" fill="none" xmlns="http://www.w3.org/2000/svg">
<path fill-rule="evenodd" clip-rule="evenodd" d="M14.08 24.8067H9.18428C7.90817 24.808 6.65489 25.1455 5.55039 25.7853C4.44588 26.4251 3.52907 27.3446 2.89209 28.4515C2.86272 23.4407 2.69259 22.2352 1.68653 15.1553C1.28876 12.3596 0.745343 8.53107 0.0269008 3.16506C-0.0237285 2.80363 -0.00275236 2.43576 0.0886496 2.08245C0.180052 1.72914 0.340084 1.39731 0.559603 1.10591C0.779121 0.814509 1.05383 0.56924 1.36805 0.384107C1.68226 0.198974 2.02982 0.0776035 2.3909 0.0269249C2.75197 -0.0237538 3.11949 -0.00274976 3.47245 0.0887415C3.82542 0.180233 4.15692 0.340418 4.44803 0.56015C4.73915 0.779883 4.98418 1.05486 5.16914 1.36938C5.35409 1.6839 5.47534 2.03181 5.52597 2.39324L8.12926 20.2714C8.14589 20.3882 8.20406 20.4951 8.29309 20.5724C8.38213 20.6497 8.49605 20.6923 8.61393 20.6923C8.7318 20.6923 8.84572 20.6497 8.93476 20.5724C9.02379 20.4951 9.08198 20.3882 9.09861 20.2714L11.6958 2.44347C11.8112 1.72509 12.2035 1.08066 12.7883 0.648542C13.3732 0.216424 14.104 0.0310664 14.8238 0.132261C15.5437 0.233455 16.1952 0.613135 16.6385 1.18979C17.0818 1.76644 17.2815 2.49409 17.1948 3.21652L15.321 16.5617C14.9294 16.9308 14.6172 17.3762 14.4038 17.8704C14.1904 18.3647 14.0802 18.8974 14.08 19.4358V24.8067ZM23.1074 30.3126C23.6841 30.6235 24.3288 30.7863 24.9838 30.7866C25.5487 30.7876 26.1072 30.6674 26.6217 30.434C27.1362 30.2007 27.5948 29.8597 27.9665 29.434V32.0068C27.9665 38.8478 22.8273 44.5483 16.2683 44.9734C14.5552 45.0849 12.8374 44.845 11.2203 44.2684C9.60309 43.6918 8.12062 42.7907 6.86371 41.6203C4.30694 39.2203 2.89821 35.834 2.89821 32.0864C2.90047 30.4182 3.56344 28.8189 4.74178 27.6392C5.92012 26.4595 7.51768 25.7956 9.18426 25.793H19.7369C20.0399 25.7935 20.3333 25.8991 20.5672 26.0919C20.8011 26.2847 20.9609 26.5527 21.0196 26.8503V26.898C21.0321 26.9651 21.0391 27.0331 21.0404 27.1014V27.2019C21.0251 27.9452 20.8244 28.6729 20.4566 29.3189C20.196 29.776 19.858 30.1843 19.4578 30.5256C18.6479 31.2172 17.6181 31.5968 16.5535 31.5964H11.227C11.0971 31.5964 10.9726 31.648 10.8808 31.7399C10.789 31.8318 10.7374 31.9564 10.7374 32.0864C10.7374 32.2164 10.789 32.341 10.8808 32.4329C10.9726 32.5248 11.0971 32.5764 11.227 32.5764C12.6339 32.5771 13.9831 33.1361 14.9788 34.131C15.9746 35.1259 16.5355 36.4754 16.5388 37.8837V39.5988C16.5388 39.7288 16.5904 39.8534 16.6822 39.9453C16.774 40.0372 16.8985 40.0889 17.0284 40.0889C17.1582 40.0889 17.2827 40.0372 17.3745 39.9453C17.4664 39.8534 17.5179 39.7288 17.5179 39.5988V37.8837C17.517 36.8232 17.2486 35.7801 16.7374 34.8512C16.2262 33.9224 15.489 33.1378 14.594 32.5703H16.5522C17.6678 32.5693 18.7565 32.2274 19.6727 31.5903C20.5889 30.9532 21.289 30.0513 21.6793 29.0052C22.04 29.5525 22.5306 30.0017 23.1074 30.3126ZM24.9838 19.5902C24.1927 19.5912 23.4343 19.9062 22.875 20.4661C22.3156 21.026 22.0009 21.7852 21.9999 22.577V26.7817C22.0155 26.8859 22.0237 26.9911 22.0244 27.0965V27.1712C22.1116 27.9288 22.4851 28.6242 23.0684 29.1148C23.6517 29.6053 24.4005 29.8538 25.161 29.8091C25.9215 29.7644 26.6361 29.43 27.158 28.8745C27.68 28.3191 27.9697 27.5847 27.9677 26.8221V22.5758C27.9668 21.7841 27.652 21.025 27.0926 20.4653C26.5332 19.9056 25.7748 19.5909 24.9838 19.5902ZM16.9513 16.6609C16.9888 16.6438 17.0296 16.6279 17.0736 16.6132L17.2193 16.5703C17.2646 16.5568 17.3111 16.5446 17.3552 16.5348C17.3682 16.5319 17.3804 16.5291 17.3926 16.5263C17.4217 16.5197 17.4506 16.5131 17.4886 16.5054C17.5424 16.4943 17.6158 16.4845 17.6526 16.4796C17.6644 16.478 17.6764 16.4759 17.6885 16.4738C17.7138 16.4694 17.7395 16.4649 17.7652 16.4649C17.8595 16.4551 17.9543 16.4502 18.0491 16.4502C18.1509 16.45 18.2527 16.4553 18.3539 16.4662C19.0879 16.5424 19.7678 16.8881 20.2623 17.4365C20.7568 17.9849 21.0309 18.6971 21.0318 19.4358V25.2025C20.654 24.9439 20.2068 24.8059 19.7491 24.8068H15.0652V19.4358C15.0655 18.9997 15.1615 18.5689 15.3463 18.1739C15.5312 17.7788 15.8004 17.4293 16.1349 17.1498C16.1538 17.1336 16.1733 17.1187 16.193 17.1037C16.2002 17.0983 16.2073 17.0928 16.2145 17.0873C16.2597 17.0505 16.3222 17.004 16.354 16.9819C16.3702 16.9706 16.3833 16.9626 16.3981 16.9534C16.4122 16.9447 16.4279 16.935 16.4494 16.9207C16.4935 16.8913 16.5388 16.8631 16.5853 16.8374L16.6979 16.7773C16.7186 16.7667 16.7414 16.7563 16.7635 16.7462C16.787 16.7354 16.8099 16.725 16.8289 16.7148C16.8656 16.6952 16.9084 16.6781 16.9513 16.6609Z" fill="#D5D922"/>
</svg>
